# xmcd
#
# Track frame offsets: 
#        150
#        10386
#        22991
#        36281
#        46892
#        59670
#        71382
#        84341
#        96275
#        110656
#        122908
#        134890
#        146092
#        156958
#        167278
#        181320
#        193095
#        204941
#        216348
#        225129
#
# Disc length: 3173 seconds
#
# Revision: 0
# Processed by: cddbd v1.5.2PL0 Copyright (c) Steve Scherf et al.
# Submitted via: ExactAudioCopyFreeDBPlugin 1.0
#
DISCID=1b0c6314
DTITLE=Various Artist - Best of Country
DYEAR=2013
DGENRE=Country
TTITLE0=Faron Young - Live Fast Love Hard Die Young
TTITLE1=Peter, Paul and Mary - 500 Miles
TTITLE2=Vaugn Monroe - Riders In The Sky
TTITLE3=Johnny Tillotson - I Can't Help It
TTITLE4=The Brothers Four - The Green Leaves Of Summer (Theme de the A
TTITLE4=lamo)
TTITLE5=Conway Twitty - Linda On My Mind
TTITLE6=Gene Pitney - Town Without Pity
TTITLE7=Marty Robbins - I'll Go Alone
TTITLE8=Red Foley - (There Will Be)Peace In The Valley
TTITLE9=Roy Orbison - I Can't Stop Loving You
TTITLE10=Jimmy Heap and The Melody Makers - Release Me
TTITLE11=Elvis Presley - I Forgot To Remember To Forget
TTITLE12=Johnny Cash - Cry ! Cry ! Cry !
TTITLE13=Charlie Walker - Pick Me Up On Your Way
TTITLE14=Jerry Lee Lewis - Cold Cold Heart
TTITLE15=Patsy Cline - Walkin' After Midnight
TTITLE16=Jim Reeves - Mexican Joe
TTITLE17=Eddy Arnold - Kentucky Waltz
TTITLE18=Freddy Cannon - California Here I Come
TTITLE19=Hank Williams - Jambalaya
EXTD=
EXTT0=
EXTT1=
EXTT2=
EXTT3=
EXTT4=
EXTT5=
EXTT6=
EXTT7=
EXTT8=
EXTT9=
EXTT10=
EXTT11=
EXTT12=
EXTT13=
EXTT14=
EXTT15=
EXTT16=
EXTT17=
EXTT18=
EXTT19=
PLAYORDER=
